<?xml version="1.0" encoding="utf-8"?>
<!-- Generator: Adobe Illustrator 27.2.0, SVG Export Plug-In . SVG Version: 6.00 Build 0)  -->
<svg version="1.1" id="Capa_1" xmlns="http://www.w3.org/2000/svg" xmlns:xlink="http://www.w3.org/1999/xlink" x="0px" y="0px"
	 viewBox="0 0 152 64" style="enable-background:new 0 0 152 64;" xml:space="preserve">
<style type="text/css">
	.st0{fill:#007632;}
	.st1{fill:#208E53;}
	.st2{fill:#FFFFFF;}
	.st3{opacity:0.6;}
	.st4{fill:#010202;}
</style>
<g>
	<g>
		<polyline class="st0" points="2,62.3 124,62.3 150,32 129.6,1.7 9.8,1.7 2,62.3 		"/>
		<path class="st1" d="M138.9,15.6l-9.4-13.9H9.8l-5.6,44c9.8-6,22.2-11.2,36.3-15.5l0,0c20.1-6.1,44-10.4,69.2-12.8l0,0
			C119.2,16.6,129,15.9,138.9,15.6z"/>
		<path class="st2" d="M3.2,61.3h120.4l25.2-29.3L129,2.7H10.7L3.2,61.3z M124,63.3H2c-0.3,0-0.6-0.1-0.8-0.3
			C1.1,62.7,1,62.4,1,62.2L8.8,1.6c0.1-0.5,0.5-0.9,1-0.9h119.8c0.3,0,0.6,0.2,0.8,0.4l20.4,30.3c0.3,0.4,0.2,0.9-0.1,1.2l-26,30.3
			C124.5,63.2,124.3,63.3,124,63.3z"/>
	</g>
	<path class="st2" d="M134.4,33.2h-13.1l0.5-2.2h13.1L134.4,33.2 M108.2,33.2H95.1l0.5-2.2h13.1L108.2,33.2z M82,33.1H68.9l0.5-2.2
		h13.1L82,33.1z M55.8,33.1H42.7l0.5-2.2h13.1L55.8,33.1z M29.2,33.1H16.1l0.5-2.2h13.1L29.2,33.1z"/>
	<g class="st3">
		<path class="st4" d="M36.6,27.9c-5.1,0-5.5-3-4.6-6.4h4.1c-0.3,1.9-0.6,3.5,1.7,3.5c1.4,0,2.2-0.9,2.5-2.2
			c0.6-3.5-7.6-3.7-6.5-9.6c0.6-3.1,2.5-5.5,7.5-5.5c4,0,5.6,1.8,4.6,5.9h-4c0.3-1.5,0.3-3-1.4-3c-1.3,0-2.3,0.7-2.5,2.1
			c-0.7,3.7,7.6,3.4,6.5,9.6C43.6,27.3,39.8,27.9,36.6,27.9"/>
		<path class="st4" d="M62,7.9l-2.6,13.9c-0.5,2.9-2.8,6-7.8,6c-4.5,0-6.3-2.3-5.6-6l2.6-13.9h4.1l-2.5,13.6
			c-0.4,2.4,0.4,3.4,1.9,3.4c1.8,0,2.8-1.2,3.2-3.4l2.5-13.6H62"/>
		<path class="st4" d="M62,17.7c1-5.2,1.9-10.1,8.6-10.1c4.2,0,5.4,2.3,4.5,6.5h-4c0.5-2.6,0.2-3.6-1-3.6c-2.3,0-3,2.2-3.9,7.2
			c-0.9,5-1,7.2,1.3,7.2c1.9,0,2.3-2.4,2.6-4h4c-1,5.2-3.4,6.9-7.2,6.9C60.1,27.9,61,22.9,62,17.7"/>
		<polyline class="st4" points="74.1,27.5 77.7,7.9 81.8,7.9 78.2,27.5 74.1,27.5 		"/>
		<polyline class="st4" points="82.3,7.9 86.6,7.9 87,22.2 87.1,22.2 93.1,7.9 97.2,7.9 88.4,27.5 83.6,27.5 82.3,7.9 		"/>
		<polyline class="st4" points="94.1,27.5 97.7,7.9 108.4,7.9 107.8,10.9 101.2,10.9 100.3,15.8 106.4,15.8 105.9,18.8 99.8,18.8 
			98.7,24.5 105.5,24.5 105,27.5 94.1,27.5 		"/>
	</g>
	<g>
		<path class="st2" d="M35.8,27.1c-5.1,0-5.5-3-4.6-6.4h4.1c-0.3,1.9-0.6,3.5,1.7,3.5c1.4,0,2.2-0.9,2.5-2.2
			c0.6-3.5-7.6-3.7-6.5-9.6c0.6-3.1,2.5-5.5,7.5-5.5c4,0,5.6,1.8,4.6,5.9h-4c0.3-1.5,0.3-3-1.4-3c-1.3,0-2.3,0.7-2.5,2.1
			c-0.7,3.7,7.6,3.4,6.5,9.6C42.8,26.5,38.9,27.1,35.8,27.1"/>
		<path class="st2" d="M61.1,7.1L58.6,21c-0.5,2.9-2.8,6-7.8,6c-4.5,0-6.3-2.3-5.6-6l2.6-13.9h4.1l-2.5,13.6
			c-0.4,2.4,0.4,3.4,1.9,3.4c1.8,0,2.8-1.2,3.2-3.4L57,7.1H61.1"/>
		<path class="st2" d="M61.1,16.9c1-5.2,1.9-10.1,8.6-10.1c4.2,0,5.4,2.3,4.5,6.5h-4c0.5-2.6,0.2-3.6-1-3.6c-2.3,0-3,2.2-3.9,7.2
			c-0.9,5-1,7.2,1.3,7.2c1.9,0,2.3-2.4,2.6-4h4c-1,5.2-3.4,6.9-7.2,6.9C59.3,27.1,60.2,22.1,61.1,16.9"/>
		<polyline class="st2" points="73.3,26.7 76.9,7.1 81,7.1 77.4,26.7 73.3,26.7 		"/>
		<polyline class="st2" points="81.5,7.1 85.8,7.1 86.2,21.4 86.2,21.4 92.3,7.1 96.3,7.1 87.5,26.7 82.7,26.7 81.5,7.1 		"/>
		<polyline class="st2" points="93.2,26.7 96.8,7.1 107.5,7.1 107,10.1 100.4,10.1 99.5,15 105.6,15 105,18 98.9,18 97.9,23.7 
			104.7,23.7 104.1,26.7 93.2,26.7 		"/>
	</g>
	<g class="st3">
		<path class="st4" d="M28.1,45.9c-1.7,0-1.8-1-1.5-2.1H28c-0.1,0.6-0.2,1.1,0.6,1.1c0.5,0,0.7-0.3,0.8-0.7c0.2-1.2-2.5-1.2-2.1-3.2
			c0.2-1,0.8-1.8,2.5-1.8c1.3,0,1.9,0.6,1.5,1.9h-1.3c0.1-0.5,0.1-1-0.4-1c-0.4,0-0.7,0.2-0.8,0.7c-0.2,1.2,2.5,1.1,2.1,3.2
			C30.4,45.7,29.2,45.9,28.1,45.9"/>
		<path class="st4" d="M32.2,45.8H31l0.8-4.5h1.3L32.2,45.8 M33.4,39.3l-0.2,1H32l0.2-1H33.4z"/>
		<path class="st4" d="M34.2,44.3c0,0.2-0.1,0.4,0,0.5c0,0.1,0.2,0.2,0.4,0.2s0.5-0.2,0.6-0.5c0.2-1-2.1-0.7-1.8-2.2
			c0.2-1,1.2-1.3,2-1.3c0.9,0,1.6,0.4,1.3,1.4h-1.2c0.1-0.3,0.1-0.5,0-0.6c-0.1-0.1-0.2-0.1-0.3-0.1c-0.3,0-0.5,0.2-0.5,0.5
			c-0.1,0.7,2.1,0.7,1.8,2.1c-0.1,0.8-0.9,1.4-1.9,1.4c-1.1,0-1.8-0.3-1.5-1.5H34.2"/>
		<path class="st4" d="M36.8,41.3h0.5l0.1-0.7l1.4-0.6l-0.2,1.3h0.7l-0.1,0.8h-0.7L38,44.5c-0.1,0.3-0.1,0.6,0.3,0.6
			c0.1,0,0.2,0,0.2,0l-0.1,0.8c-0.2,0-0.4,0-0.7,0c-1.1,0-1.1-0.7-1.1-1l0.5-2.8h-0.5L36.8,41.3"/>
		<path class="st4" d="M40,43.7c-0.1,0.5-0.2,1.3,0.3,1.3c0.4,0,0.6-0.4,0.7-0.8h1.3c-0.1,0.5-0.3,0.9-0.7,1.2
			c-0.3,0.3-0.8,0.4-1.4,0.4c-1.6,0-1.7-1-1.4-2.4c0.2-1.2,0.6-2.3,2.3-2.3c1.7,0,1.7,1.1,1.4,2.6H40 M41.3,43
			c0.1-0.4,0.2-1.1-0.4-1.1c-0.6,0-0.7,0.7-0.8,1.1H41.3z"/>
		<path class="st4" d="M44.4,41.7L44.4,41.7c0.3-0.4,0.7-0.5,1.2-0.5c0.4,0,0.8,0.2,0.9,0.6c0.4-0.4,0.8-0.6,1.3-0.6
			c0.6,0,1.1,0.4,0.9,1l-0.7,3.6h-1.3l0.6-3.1c0.1-0.4,0.1-0.7-0.3-0.7c-0.4,0-0.5,0.3-0.6,0.7l-0.6,3.1h-1.2l0.6-3.1
			c0.1-0.4,0.1-0.7-0.3-0.7c-0.4,0-0.5,0.3-0.6,0.7l-0.6,3.1h-1.3l0.8-4.5h1.3L44.4,41.7"/>
		<path class="st4" d="M52.1,45c-0.1,0.3-0.1,0.6-0.1,0.8h-1.2l0.1-0.6h0c-0.4,0.5-0.8,0.7-1.3,0.7c-0.9,0-1.1-0.7-0.9-1.4
			c0.3-1.5,1.4-1.6,2.6-1.5l0.1-0.3c0.1-0.4,0.1-0.7-0.4-0.7c-0.4,0-0.5,0.3-0.6,0.7h-1.2c0.1-0.5,0.3-0.9,0.7-1.1
			c0.3-0.2,0.8-0.3,1.2-0.3c1.6,0,1.7,0.7,1.5,1.5L52.1,45 M49.9,44.4c-0.1,0.3-0.1,0.7,0.3,0.7c0.7,0,0.8-1,0.9-1.5
			C50.5,43.6,50.1,43.6,49.9,44.4"/>
		<path class="st4" d="M59.7,39.3l-0.8,4.6c-0.2,1-0.9,2-2.6,2c-1.5,0-2.1-0.8-1.8-2l0.8-4.6h1.4l-0.8,4.5c-0.1,0.8,0.1,1.1,0.6,1.1
			c0.6,0,0.9-0.4,1.1-1.1l0.8-4.5H59.7 M59.1,37.4l-1.7,1.3h-0.6l1-1.3H59.1z"/>
		<path class="st4" d="M61.2,41.7L61.2,41.7c0.3-0.4,0.7-0.5,1.2-0.5c0.6,0,1.1,0.4,0.9,1l-0.7,3.6h-1.3l0.6-3.1
			C62,42.3,62,42,61.6,42c-0.4,0-0.5,0.3-0.6,0.7l-0.6,3.1h-1.3l0.8-4.5h1.3L61.2,41.7"/>
		<path class="st4" d="M64.5,45.8h-1.3l0.8-4.5h1.3L64.5,45.8 M65.7,39.3l-0.2,1h-1.3l0.2-1H65.7z"/>
		<path class="st4" d="M68.1,42.9c0.1-0.7,0-0.9-0.4-0.9c-0.5,0-0.7,0.5-0.8,1.4c-0.3,1.4-0.2,1.7,0.3,1.7c0.4,0,0.6-0.4,0.8-0.9
			h1.3c-0.2,1.2-1,1.8-2.2,1.8c-1.6,0-1.7-1-1.4-2.4c0.2-1.2,0.6-2.3,2.3-2.3c1.2,0,1.7,0.5,1.5,1.7H68.1"/>
		<path class="st4" d="M69.6,43.5c0.2-1.2,0.6-2.3,2.3-2.3c1.7,0,1.7,1.1,1.4,2.3c-0.3,1.4-0.7,2.4-2.3,2.4S69.3,44.9,69.6,43.5
			 M72,43.4c0.2-0.9,0.2-1.4-0.3-1.4c-0.5,0-0.7,0.5-0.8,1.4c-0.3,1.4-0.2,1.7,0.3,1.7C71.6,45.1,71.8,44.8,72,43.4"/>
		<path class="st4" d="M77.1,45.8l0.1-0.5h0c-0.3,0.4-0.7,0.6-1.2,0.6c-1.3,0-1-1.5-0.8-2.4c0.2-0.9,0.4-2.3,1.7-2.3
			c0.5,0,0.7,0.1,0.9,0.5h0l0.4-2.4h1.3l-1.2,6.5H77.1 M77.4,43.5c0.2-0.9,0.3-1.5-0.2-1.5c-0.5,0-0.7,0.6-0.8,1.5
			c-0.2,1.1-0.2,1.6,0.2,1.6C77.1,45.1,77.2,44.6,77.4,43.5"/>
		<path class="st4" d="M80.4,43.7c-0.1,0.5-0.2,1.3,0.3,1.3c0.4,0,0.6-0.4,0.7-0.8h1.3c-0.1,0.5-0.3,0.9-0.7,1.2
			c-0.3,0.3-0.8,0.4-1.4,0.4c-1.6,0-1.7-1-1.4-2.4c0.2-1.2,0.6-2.3,2.3-2.3c1.7,0,1.7,1.1,1.4,2.6H80.4 M81.7,43
			c0.1-0.4,0.2-1.1-0.4-1.1c-0.6,0-0.7,0.7-0.8,1.1H81.7z"/>
		<path class="st4" d="M85,42.6c0.3-1.7,0.6-3.3,2.8-3.3c1.4,0,1.8,0.8,1.5,2.2H88c0.2-0.9,0.1-1.2-0.3-1.2c-0.8,0-1,0.7-1.3,2.4
			c-0.3,1.7-0.3,2.4,0.4,2.4c0.6,0,0.7-0.8,0.9-1.3H89c-0.3,1.7-1.1,2.3-2.4,2.3C84.4,45.9,84.7,44.3,85,42.6"/>
		<path class="st4" d="M89.3,43.5c0.2-1.2,0.6-2.3,2.3-2.3c1.7,0,1.7,1.1,1.4,2.3c-0.3,1.4-0.7,2.4-2.3,2.4
			C89.1,45.9,89,44.9,89.3,43.5 M91.7,43.4c0.2-0.9,0.2-1.4-0.3-1.4c-0.5,0-0.7,0.5-0.8,1.4c-0.3,1.4-0.2,1.7,0.3,1.7
			C91.3,45.1,91.5,44.8,91.7,43.4"/>
		<path class="st4" d="M94.2,39.3h1.3L95,41.7h0c0.3-0.4,0.7-0.5,1.1-0.5c1.3,0,1,1.4,0.8,2.3c-0.2,0.9-0.4,2.4-1.7,2.4
			c-0.5,0-0.8-0.2-1-0.6h0l-0.1,0.5H93L94.2,39.3 M95.7,43.5c0.2-0.9,0.3-1.5-0.3-1.5c-0.5,0-0.6,0.6-0.8,1.5
			c-0.2,1.1-0.2,1.6,0.2,1.6C95.3,45.1,95.5,44.6,95.7,43.5"/>
		<path class="st4" d="M99.1,41.3l-0.1,0.6h0c0.3-0.5,0.8-0.7,1.3-0.7l-0.2,1.1c-1.1-0.1-1.2,0.6-1.3,1l-0.5,2.5H97l0.8-4.5H99.1"/>
		<path class="st4" d="M99.9,43.5c0.2-1.2,0.6-2.3,2.3-2.3s1.7,1.1,1.4,2.3c-0.3,1.4-0.7,2.4-2.3,2.4C99.6,45.9,99.6,44.9,99.9,43.5
			 M102.3,43.4c0.2-0.9,0.2-1.4-0.3-1.4c-0.5,0-0.7,0.5-0.8,1.4c-0.3,1.4-0.2,1.7,0.3,1.7C101.9,45.1,102.1,44.8,102.3,43.4"/>
		<path class="st4" d="M27,54.3l0.1-0.5h0c-0.3,0.4-0.7,0.6-1.2,0.6c-1.3,0-1-1.5-0.8-2.4c0.2-0.9,0.4-2.3,1.7-2.3
			c0.5,0,0.7,0.1,0.9,0.5h0l0.4-2.4h1.3l-1.2,6.5H27 M27.4,52c0.2-0.9,0.3-1.5-0.2-1.5c-0.5,0-0.7,0.6-0.8,1.5
			c-0.2,1.1-0.2,1.6,0.2,1.6C27,53.6,27.2,53.1,27.4,52"/>
		<path class="st4" d="M30.4,52.2c-0.1,0.5-0.2,1.3,0.3,1.3c0.4,0,0.6-0.4,0.7-0.8h1.3c-0.1,0.5-0.3,0.9-0.7,1.2
			c-0.3,0.3-0.8,0.4-1.4,0.4c-1.6,0-1.7-1-1.4-2.4c0.2-1.2,0.6-2.3,2.3-2.3c1.7,0,1.7,1.1,1.4,2.6H30.4 M31.6,51.5
			c0.1-0.4,0.2-1.1-0.4-1.1c-0.6,0-0.7,0.7-0.8,1.1H31.6z"/>
		<polyline class="st4" points="34.5,54.3 35.6,47.8 37,47.8 35.8,54.3 34.5,54.3 		"/>
		<path class="st4" d="M38.4,50.2L38.4,50.2c0.3-0.4,0.7-0.5,1.2-0.5c0.6,0,1.1,0.4,0.9,1l-0.7,3.6h-1.3l0.6-3.1
			c0.1-0.4,0.1-0.7-0.3-0.7c-0.4,0-0.5,0.3-0.6,0.7l-0.6,3.1h-1.3l0.8-4.5h1.3L38.4,50.2"/>
		<path class="st4" d="M44.8,49.7l-0.9,4.7c-0.1,0.3-0.3,1.6-2,1.6c-0.9,0-1.7-0.2-1.5-1.3h1.2c0,0.2,0,0.3,0,0.5
			c0.1,0.1,0.2,0.2,0.4,0.2c0.3,0,0.5-0.3,0.6-0.8l0.2-0.9h0c-0.3,0.3-0.6,0.5-1.1,0.5c-1.4,0-1.1-1.3-0.9-2.3
			c0.2-1,0.4-2.3,1.7-2.3c0.4,0,0.8,0.2,0.9,0.6h0l0.1-0.5H44.8 M42.3,53.4c0.5,0,0.6-0.5,0.8-1.4c0.2-1,0.2-1.6-0.2-1.6
			c-0.5,0-0.6,0.3-0.9,1.7C41.9,52.6,41.7,53.4,42.3,53.4"/>
		<path class="st4" d="M46.5,49.7l-0.1,0.6h0c0.3-0.5,0.8-0.7,1.3-0.7l-0.2,1.1c-1.1-0.1-1.2,0.6-1.3,1l-0.5,2.5h-1.3l0.8-4.5H46.5"
			/>
		<path class="st4" d="M48.6,52.2c-0.1,0.5-0.2,1.3,0.3,1.3c0.4,0,0.6-0.4,0.7-0.8h1.3c-0.1,0.5-0.3,0.9-0.7,1.2
			c-0.3,0.3-0.8,0.4-1.4,0.4c-1.6,0-1.7-1-1.4-2.4c0.2-1.2,0.6-2.3,2.3-2.3c1.7,0,1.7,1.1,1.4,2.6H48.6 M49.9,51.5
			c0.1-0.4,0.2-1.1-0.4-1.1c-0.6,0-0.7,0.7-0.8,1.1H49.9z"/>
		<path class="st4" d="M52.3,52.8c0,0.2-0.1,0.4,0,0.5c0,0.1,0.2,0.2,0.4,0.2c0.3,0,0.5-0.2,0.6-0.5c0.2-1-2.1-0.7-1.8-2.2
			c0.2-1,1.2-1.3,2-1.3c0.9,0,1.6,0.4,1.3,1.4h-1.2c0.1-0.3,0.1-0.5,0-0.6c-0.1-0.1-0.2-0.1-0.3-0.1c-0.3,0-0.5,0.2-0.5,0.5
			c-0.1,0.7,2.1,0.7,1.8,2.1c-0.1,0.8-0.9,1.4-1.9,1.4c-1.1,0-1.8-0.3-1.5-1.5H52.3"/>
		<path class="st4" d="M54.9,52c0.2-1.2,0.6-2.3,2.3-2.3c1.7,0,1.7,1.1,1.4,2.3c-0.3,1.4-0.7,2.4-2.3,2.4
			C54.7,54.4,54.7,53.4,54.9,52 M57.4,51.9c0.2-0.9,0.2-1.4-0.3-1.4c-0.5,0-0.7,0.5-0.8,1.4c-0.3,1.4-0.2,1.7,0.3,1.7
			S57.1,53.3,57.4,51.9"/>
		<path class="st4" d="M59.9,52.8c0,0.2-0.1,0.4,0,0.5c0,0.1,0.2,0.2,0.4,0.2c0.3,0,0.5-0.2,0.6-0.5c0.2-1-2.1-0.7-1.8-2.2
			c0.2-1,1.2-1.3,2-1.3c0.9,0,1.6,0.4,1.3,1.4h-1.2c0.1-0.3,0.1-0.5,0-0.6c-0.1-0.1-0.2-0.1-0.3-0.1c-0.3,0-0.5,0.2-0.5,0.5
			c-0.1,0.7,2.1,0.7,1.8,2.1c-0.1,0.8-0.9,1.4-1.9,1.4c-1.1,0-1.8-0.3-1.5-1.5H59.9"/>
		<polyline class="st4" points="64.4,47.8 65.8,47.8 66,52.5 66,52.5 68,47.8 69.3,47.8 66.4,54.3 64.8,54.3 64.4,47.8 		"/>
		<path class="st4" d="M69.4,52.2c-0.1,0.5-0.2,1.3,0.3,1.3c0.4,0,0.6-0.4,0.7-0.8h1.3c-0.1,0.5-0.3,0.9-0.7,1.2
			c-0.3,0.3-0.8,0.4-1.4,0.4c-1.6,0-1.7-1-1.4-2.4c0.2-1.2,0.6-2.3,2.3-2.3c1.7,0,1.7,1.1,1.4,2.6H69.4 M70.7,51.5
			c0.1-0.4,0.2-1.1-0.4-1.1c-0.6,0-0.7,0.7-0.8,1.1H70.7z"/>
		<path class="st4" d="M74.1,54.3l0.6-3.1c0.1-0.4,0.1-0.7-0.3-0.7c-0.4,0-0.5,0.3-0.6,0.7l-0.6,3.1h-1.3l1.2-6.5h1.3l-0.4,2.4h0
			c0.3-0.4,0.7-0.5,1.2-0.5c0.6,0,1.1,0.4,0.9,1l-0.7,3.6H74.1"/>
		<path class="st4" d="M77.3,54.3h-1.3l0.8-4.5h1.3L77.3,54.3 M78.5,47.8l-0.2,1h-1.3l0.2-1H78.5z"/>
		<path class="st4" d="M80.8,51.4c0.1-0.7,0-0.9-0.4-0.9c-0.5,0-0.7,0.5-0.8,1.4c-0.3,1.4-0.2,1.7,0.3,1.7c0.4,0,0.6-0.4,0.8-0.9
			h1.3c-0.2,1.2-1,1.8-2.2,1.8c-1.6,0-1.7-1-1.4-2.4c0.2-1.2,0.6-2.3,2.3-2.3c1.2,0,1.7,0.5,1.5,1.7H80.8"/>
		<path class="st4" d="M84.3,53.8L84.3,53.8c-0.3,0.4-0.7,0.5-1.2,0.5c-0.6,0-1.1-0.4-0.9-1l0.7-3.6h1.3l-0.6,3.1
			c-0.1,0.4-0.1,0.7,0.3,0.7c0.4,0,0.5-0.3,0.6-0.7l0.6-3.1h1.3l-0.7,3.6c-0.1,0.3-0.1,0.6-0.1,0.9h-1.3L84.3,53.8"/>
		<polyline class="st4" points="88.6,47.8 87.4,54.3 86.2,54.3 87.4,47.8 88.6,47.8 		"/>
		<path class="st4" d="M91.7,53.4c-0.1,0.3-0.1,0.6-0.1,0.8h-1.2l0.1-0.6h0c-0.4,0.5-0.8,0.7-1.3,0.7c-0.9,0-1.1-0.7-0.9-1.4
			c0.3-1.5,1.4-1.6,2.6-1.5l0.1-0.4c0.1-0.4,0.1-0.7-0.4-0.7c-0.4,0-0.5,0.3-0.6,0.7h-1.2c0.1-0.5,0.3-0.9,0.7-1.1
			c0.3-0.2,0.8-0.3,1.2-0.3c1.6,0,1.7,0.7,1.5,1.5L91.7,53.4 M89.5,52.9c-0.1,0.3-0.1,0.7,0.3,0.7c0.7,0,0.8-1,0.9-1.5
			C90.1,52.1,89.6,52.1,89.5,52.9"/>
		<path class="st4" d="M94.2,49.7l-0.1,0.6h0c0.3-0.5,0.8-0.7,1.3-0.7l-0.2,1.1c-1.1-0.1-1.2,0.6-1.3,1l-0.5,2.5h-1.3l0.8-4.5H94.2"
			/>
		<path class="st4" d="M96.2,52.2c-0.1,0.5-0.2,1.3,0.3,1.3c0.4,0,0.6-0.4,0.7-0.8h1.3c-0.1,0.5-0.3,0.9-0.7,1.2
			c-0.3,0.3-0.8,0.4-1.4,0.4c-1.6,0-1.7-1-1.4-2.4c0.2-1.2,0.6-2.3,2.3-2.3c1.7,0,1.7,1.1,1.4,2.6H96.2 M97.5,51.5
			c0.1-0.4,0.2-1.1-0.4-1.1c-0.6,0-0.7,0.7-0.8,1.1H97.5z"/>
		<path class="st4" d="M100,52.8c0,0.2-0.1,0.4,0,0.5c0,0.1,0.2,0.2,0.4,0.2c0.3,0,0.5-0.2,0.6-0.5c0.2-1-2.1-0.7-1.8-2.2
			c0.2-1,1.2-1.3,2-1.3c0.9,0,1.6,0.4,1.3,1.4h-1.2c0.1-0.3,0.1-0.5,0-0.6c-0.1-0.1-0.2-0.1-0.3-0.1c-0.3,0-0.5,0.2-0.5,0.5
			c-0.1,0.7,2.1,0.7,1.8,2.1c-0.1,0.8-0.9,1.4-1.9,1.4c-1.1,0-1.8-0.3-1.5-1.5H100"/>
	</g>
	<g>
		<path class="st2" d="M27.5,45.5c-1.7,0-1.8-1-1.5-2.1h1.4c-0.1,0.6-0.2,1.1,0.6,1.1c0.5,0,0.7-0.3,0.8-0.7
			c0.2-1.2-2.5-1.2-2.1-3.2c0.2-1,0.8-1.8,2.5-1.8c1.3,0,1.9,0.6,1.5,1.9h-1.3c0.1-0.5,0.1-1-0.4-1c-0.4,0-0.7,0.2-0.8,0.7
			c-0.2,1.2,2.5,1.1,2.1,3.2C29.7,45.3,28.5,45.5,27.5,45.5"/>
		<path class="st2" d="M31.6,45.4h-1.3l0.8-4.5h1.3L31.6,45.4 M32.7,38.9l-0.2,1h-1.3l0.2-1H32.7z"/>
		<path class="st2" d="M33.5,43.9c0,0.2-0.1,0.4,0,0.5c0,0.1,0.2,0.2,0.4,0.2s0.5-0.2,0.6-0.5c0.2-1-2.1-0.7-1.8-2.2
			c0.2-1,1.2-1.3,2-1.3c0.9,0,1.6,0.4,1.3,1.4h-1.2c0.1-0.3,0.1-0.5,0-0.6c-0.1-0.1-0.2-0.1-0.3-0.1c-0.3,0-0.5,0.2-0.5,0.5
			c-0.1,0.7,2.1,0.7,1.8,2.1c-0.1,0.8-0.9,1.4-1.9,1.4c-1.1,0-1.8-0.3-1.5-1.5H33.5"/>
		<path class="st2" d="M36.1,40.8h0.5l0.1-0.7l1.4-0.6l-0.2,1.3h0.7l-0.1,0.8h-0.7L37.3,44c-0.1,0.3-0.1,0.6,0.3,0.6
			c0.1,0,0.2,0,0.2,0l-0.1,0.8c-0.2,0-0.4,0-0.7,0c-1.1,0-1.1-0.7-1.1-1l0.5-2.8h-0.5L36.1,40.8"/>
		<path class="st2" d="M39.3,43.3c-0.1,0.5-0.2,1.3,0.3,1.3c0.4,0,0.6-0.4,0.7-0.8h1.3c-0.1,0.5-0.3,0.9-0.7,1.2
			c-0.3,0.3-0.8,0.4-1.4,0.4c-1.6,0-1.7-1-1.4-2.4c0.2-1.2,0.6-2.3,2.3-2.3c1.7,0,1.7,1.1,1.4,2.6H39.3 M40.6,42.6
			c0.1-0.4,0.2-1.1-0.4-1.1c-0.6,0-0.7,0.7-0.8,1.1H40.6z"/>
		<path class="st2" d="M43.7,41.3L43.7,41.3c0.3-0.4,0.7-0.5,1.2-0.5c0.4,0,0.8,0.2,0.9,0.6c0.4-0.4,0.8-0.6,1.3-0.6
			c0.6,0,1.1,0.4,0.9,1l-0.7,3.6h-1.3l0.6-3.1c0.1-0.4,0.1-0.7-0.3-0.7c-0.4,0-0.5,0.3-0.6,0.7l-0.6,3.1h-1.2l0.6-3.1
			c0.1-0.4,0.1-0.7-0.3-0.7c-0.4,0-0.5,0.3-0.6,0.7L43,45.4h-1.3l0.8-4.5h1.3L43.7,41.3"/>
		<path class="st2" d="M51.4,44.5c-0.1,0.3-0.1,0.6-0.1,0.8h-1.2l0.1-0.6h0c-0.4,0.5-0.8,0.7-1.3,0.7c-0.9,0-1.1-0.7-0.9-1.4
			c0.3-1.5,1.4-1.6,2.6-1.5l0.1-0.3c0.1-0.4,0.1-0.7-0.4-0.7c-0.4,0-0.5,0.3-0.6,0.7h-1.2c0.1-0.5,0.3-0.9,0.7-1.1
			c0.3-0.2,0.8-0.3,1.2-0.3c1.6,0,1.7,0.7,1.5,1.5L51.4,44.5 M49.2,44c-0.1,0.3-0.1,0.7,0.3,0.7c0.7,0,0.8-1,0.9-1.5
			C49.8,43.2,49.4,43.2,49.2,44"/>
		<path class="st2" d="M59,38.9l-0.8,4.6c-0.2,1-0.9,2-2.6,2c-1.5,0-2.1-0.8-1.8-2l0.8-4.6H56l-0.8,4.5c-0.1,0.8,0.1,1.1,0.6,1.1
			c0.6,0,0.9-0.4,1.1-1.1l0.8-4.5H59 M58.5,37l-1.7,1.3h-0.6l1-1.3H58.5z"/>
		<path class="st2" d="M60.5,41.3L60.5,41.3c0.3-0.4,0.7-0.5,1.2-0.5c0.6,0,1.1,0.4,0.9,1l-0.7,3.6h-1.3l0.6-3.1
			c0.1-0.4,0.1-0.7-0.3-0.7c-0.4,0-0.5,0.3-0.6,0.7l-0.6,3.1h-1.3l0.8-4.5h1.3L60.5,41.3"/>
		<path class="st2" d="M63.9,45.4h-1.3l0.8-4.5h1.3L63.9,45.4 M65,38.9l-0.2,1h-1.3l0.2-1H65z"/>
		<path class="st2" d="M67.4,42.5c0.1-0.7,0-0.9-0.4-0.9c-0.5,0-0.7,0.5-0.8,1.4c-0.3,1.4-0.2,1.7,0.3,1.7c0.4,0,0.6-0.4,0.8-0.9
			h1.3c-0.2,1.2-1,1.8-2.2,1.8c-1.6,0-1.7-1-1.4-2.4c0.2-1.2,0.6-2.3,2.3-2.3c1.2,0,1.7,0.5,1.5,1.7H67.4"/>
		<path class="st2" d="M68.9,43c0.2-1.2,0.6-2.3,2.3-2.3c1.7,0,1.7,1.1,1.4,2.3c-0.3,1.4-0.7,2.4-2.3,2.4S68.6,44.5,68.9,43
			 M71.3,43c0.2-0.9,0.2-1.4-0.3-1.4c-0.5,0-0.7,0.5-0.8,1.4c-0.3,1.4-0.2,1.7,0.3,1.7C70.9,44.6,71.1,44.4,71.3,43"/>
		<path class="st2" d="M76.4,45.4l0.1-0.5h0c-0.3,0.4-0.7,0.6-1.2,0.6c-1.3,0-1-1.5-0.8-2.4c0.2-0.9,0.4-2.3,1.7-2.3
			c0.5,0,0.7,0.1,0.9,0.5h0l0.4-2.4h1.3l-1.2,6.5H76.4 M76.7,43.1c0.2-0.9,0.3-1.5-0.2-1.5c-0.5,0-0.7,0.6-0.8,1.5
			c-0.2,1.1-0.2,1.6,0.2,1.6C76.4,44.7,76.5,44.2,76.7,43.1"/>
		<path class="st2" d="M79.7,43.3c-0.1,0.5-0.2,1.3,0.3,1.3c0.4,0,0.6-0.4,0.7-0.8H82c-0.1,0.5-0.3,0.9-0.7,1.2
			c-0.3,0.3-0.8,0.4-1.4,0.4c-1.6,0-1.7-1-1.4-2.4c0.2-1.2,0.6-2.3,2.3-2.3c1.7,0,1.7,1.1,1.4,2.6H79.7 M81,42.6
			c0.1-0.4,0.2-1.1-0.4-1.1c-0.6,0-0.7,0.7-0.8,1.1H81z"/>
		<path class="st2" d="M84.3,42.1c0.3-1.7,0.6-3.3,2.8-3.3c1.4,0,1.8,0.8,1.5,2.2h-1.3c0.2-0.9,0.1-1.2-0.3-1.2
			c-0.8,0-1,0.7-1.3,2.4c-0.3,1.7-0.3,2.4,0.4,2.4c0.6,0,0.7-0.8,0.9-1.3h1.3c-0.3,1.7-1.1,2.3-2.4,2.3C83.7,45.5,84,43.8,84.3,42.1
			"/>
		<path class="st2" d="M88.6,43c0.2-1.2,0.6-2.3,2.3-2.3c1.7,0,1.7,1.1,1.4,2.3c-0.3,1.4-0.7,2.4-2.3,2.4
			C88.4,45.5,88.3,44.5,88.6,43 M91,43c0.2-0.9,0.2-1.4-0.3-1.4c-0.5,0-0.7,0.5-0.8,1.4c-0.3,1.4-0.2,1.7,0.3,1.7
			C90.6,44.6,90.8,44.4,91,43"/>
		<path class="st2" d="M93.5,38.9h1.3l-0.4,2.4h0c0.3-0.4,0.7-0.5,1.1-0.5c1.3,0,1,1.4,0.8,2.3c-0.2,0.9-0.4,2.4-1.7,2.4
			c-0.5,0-0.8-0.2-1-0.6h0l-0.1,0.5h-1.2L93.5,38.9 M95,43.1c0.2-0.9,0.3-1.5-0.3-1.5c-0.5,0-0.6,0.6-0.8,1.5
			c-0.2,1.1-0.2,1.6,0.2,1.6C94.7,44.7,94.8,44.2,95,43.1"/>
		<path class="st2" d="M98.4,40.8l-0.1,0.6h0c0.3-0.5,0.8-0.7,1.3-0.7l-0.2,1.1c-1.1-0.1-1.2,0.6-1.3,1l-0.5,2.5h-1.3l0.8-4.5H98.4"
			/>
		<path class="st2" d="M99.2,43c0.2-1.2,0.6-2.3,2.3-2.3c1.7,0,1.7,1.1,1.4,2.3c-0.3,1.4-0.7,2.4-2.3,2.4C99,45.5,98.9,44.5,99.2,43
			 M101.6,43c0.2-0.9,0.2-1.4-0.3-1.4c-0.5,0-0.7,0.5-0.8,1.4c-0.3,1.4-0.2,1.7,0.3,1.7C101.2,44.6,101.4,44.4,101.6,43"/>
		<path class="st2" d="M26.4,53.8l0.1-0.5h0c-0.3,0.4-0.7,0.6-1.2,0.6c-1.3,0-1-1.5-0.8-2.4c0.2-0.9,0.4-2.3,1.7-2.3
			c0.5,0,0.7,0.1,0.9,0.5h0l0.4-2.4h1.3l-1.2,6.5H26.4 M26.7,51.5c0.2-0.9,0.3-1.5-0.2-1.5c-0.5,0-0.7,0.6-0.8,1.5
			c-0.2,1.1-0.2,1.6,0.2,1.6C26.3,53.2,26.5,52.7,26.7,51.5"/>
		<path class="st2" d="M29.7,51.8c-0.1,0.5-0.2,1.3,0.3,1.3c0.4,0,0.6-0.4,0.7-0.8H32c-0.1,0.5-0.3,0.9-0.7,1.2
			c-0.3,0.3-0.8,0.4-1.4,0.4c-1.6,0-1.7-1-1.4-2.4c0.2-1.2,0.6-2.3,2.3-2.3c1.7,0,1.7,1.1,1.4,2.6H29.7 M31,51.1
			c0.1-0.4,0.2-1.1-0.4-1.1c-0.6,0-0.7,0.7-0.8,1.1H31z"/>
		<polyline class="st2" points="33.8,53.8 35,47.4 36.3,47.4 35.1,53.8 33.8,53.8 		"/>
		<path class="st2" d="M37.8,49.8L37.8,49.8c0.3-0.4,0.7-0.5,1.2-0.5c0.6,0,1.1,0.4,0.9,1l-0.7,3.6H38l0.6-3.1
			c0.1-0.4,0.1-0.7-0.3-0.7c-0.4,0-0.5,0.3-0.6,0.7L37,53.8h-1.3l0.8-4.5h1.3L37.8,49.8"/>
		<path class="st2" d="M44.1,49.3L43.2,54c-0.1,0.3-0.3,1.6-2,1.6c-0.9,0-1.7-0.2-1.5-1.3h1.2c0,0.2,0,0.3,0,0.5
			c0.1,0.1,0.2,0.2,0.4,0.2c0.3,0,0.5-0.3,0.6-0.8l0.2-0.9h0c-0.3,0.3-0.6,0.5-1.1,0.5c-1.4,0-1.1-1.3-0.9-2.3
			c0.2-1,0.4-2.3,1.7-2.3c0.4,0,0.8,0.2,0.9,0.6h0l0.1-0.5H44.1 M41.6,53c0.5,0,0.6-0.5,0.8-1.4c0.2-1,0.2-1.6-0.2-1.6
			c-0.5,0-0.6,0.3-0.9,1.7C41.2,52.1,41,53,41.6,53"/>
		<path class="st2" d="M45.8,49.3l-0.1,0.6h0c0.3-0.5,0.8-0.7,1.3-0.7l-0.2,1.1c-1.1-0.1-1.2,0.6-1.3,1l-0.5,2.5h-1.3l0.8-4.5H45.8"
			/>
		<path class="st2" d="M47.9,51.8c-0.1,0.5-0.2,1.3,0.3,1.3c0.4,0,0.6-0.4,0.7-0.8h1.3c-0.1,0.5-0.3,0.9-0.7,1.2
			c-0.3,0.3-0.8,0.4-1.4,0.4c-1.6,0-1.7-1-1.4-2.4c0.2-1.2,0.6-2.3,2.3-2.3c1.7,0,1.7,1.1,1.4,2.6H47.9 M49.2,51.1
			c0.1-0.4,0.2-1.1-0.4-1.1c-0.6,0-0.7,0.7-0.8,1.1H49.2z"/>
		<path class="st2" d="M51.6,52.4c0,0.2-0.1,0.4,0,0.5c0,0.1,0.2,0.2,0.4,0.2c0.3,0,0.5-0.2,0.6-0.5c0.2-1-2.1-0.7-1.8-2.2
			c0.2-1,1.2-1.3,2-1.3c0.9,0,1.6,0.4,1.3,1.4h-1.2c0.1-0.3,0.1-0.5,0-0.6c-0.1-0.1-0.2-0.1-0.3-0.1c-0.3,0-0.5,0.2-0.5,0.5
			c-0.1,0.7,2.1,0.7,1.8,2.1c-0.1,0.8-0.9,1.4-1.9,1.4c-1.1,0-1.8-0.3-1.5-1.5H51.6"/>
		<path class="st2" d="M54.2,51.5c0.2-1.2,0.6-2.3,2.3-2.3c1.7,0,1.7,1.1,1.4,2.3c-0.3,1.4-0.7,2.4-2.3,2.4
			C54,53.9,54,52.9,54.2,51.5 M56.7,51.4c0.2-0.9,0.2-1.4-0.3-1.4c-0.5,0-0.7,0.5-0.8,1.4c-0.3,1.4-0.2,1.7,0.3,1.7
			C56.2,53.1,56.4,52.8,56.7,51.4"/>
		<path class="st2" d="M59.2,52.4c0,0.2-0.1,0.4,0,0.5c0,0.1,0.2,0.2,0.4,0.2c0.3,0,0.5-0.2,0.6-0.5c0.2-1-2.1-0.7-1.8-2.2
			c0.2-1,1.2-1.3,2-1.3c0.9,0,1.6,0.4,1.3,1.4h-1.2c0.1-0.3,0.1-0.5,0-0.6c-0.1-0.1-0.2-0.1-0.3-0.1c-0.3,0-0.5,0.2-0.5,0.5
			c-0.1,0.7,2.1,0.7,1.8,2.1c-0.1,0.8-0.9,1.4-1.9,1.4c-1.1,0-1.8-0.3-1.5-1.5H59.2"/>
		<polyline class="st2" points="63.7,47.4 65.1,47.4 65.3,52.1 65.3,52.1 67.3,47.4 68.6,47.4 65.7,53.8 64.1,53.8 63.7,47.4 		"/>
		<path class="st2" d="M68.8,51.8c-0.1,0.5-0.2,1.3,0.3,1.3c0.4,0,0.6-0.4,0.7-0.8H71c-0.1,0.5-0.3,0.9-0.7,1.2
			c-0.3,0.3-0.8,0.4-1.4,0.4c-1.6,0-1.7-1-1.4-2.4c0.2-1.2,0.6-2.3,2.3-2.3c1.7,0,1.7,1.1,1.4,2.6H68.8 M70,51.1
			c0.1-0.4,0.2-1.1-0.4-1.1c-0.6,0-0.7,0.7-0.8,1.1H70z"/>
		<path class="st2" d="M73.5,53.8l0.6-3.1c0.1-0.4,0.1-0.7-0.3-0.7c-0.4,0-0.5,0.3-0.6,0.7l-0.6,3.1h-1.3l1.2-6.5h1.3l-0.4,2.4h0
			c0.3-0.4,0.7-0.5,1.2-0.5c0.6,0,1.1,0.4,0.9,1l-0.7,3.6H73.5"/>
		<path class="st2" d="M76.6,53.8h-1.3l0.8-4.5h1.3L76.6,53.8 M77.8,47.4l-0.2,1h-1.3l0.2-1H77.8z"/>
		<path class="st2" d="M80.2,50.9c0.1-0.7,0-0.9-0.4-0.9c-0.5,0-0.7,0.5-0.8,1.4c-0.3,1.4-0.2,1.7,0.3,1.7c0.4,0,0.6-0.4,0.8-0.9
			h1.3c-0.2,1.2-1,1.8-2.2,1.8c-1.6,0-1.7-1-1.4-2.4c0.2-1.2,0.6-2.3,2.3-2.3c1.2,0,1.7,0.5,1.5,1.7H80.2"/>
		<path class="st2" d="M83.6,53.4L83.6,53.4c-0.3,0.4-0.7,0.5-1.2,0.5c-0.6,0-1.1-0.4-0.9-1l0.7-3.6h1.3l-0.6,3.1
			c-0.1,0.4-0.1,0.7,0.3,0.7c0.4,0,0.5-0.3,0.6-0.7l0.6-3.1h1.3L85,52.9c-0.1,0.3-0.1,0.6-0.1,0.9h-1.3L83.6,53.4"/>
		<polyline class="st2" points="87.9,47.4 86.7,53.8 85.5,53.8 86.7,47.4 87.9,47.4 		"/>
		<path class="st2" d="M91,53c-0.1,0.3-0.1,0.6-0.1,0.8h-1.2l0.1-0.6h0c-0.4,0.5-0.8,0.7-1.3,0.7c-0.9,0-1.1-0.7-0.9-1.4
			c0.3-1.5,1.4-1.6,2.6-1.5l0.1-0.4c0.1-0.4,0.1-0.7-0.4-0.7c-0.4,0-0.5,0.3-0.6,0.7H88c0.1-0.5,0.3-0.9,0.7-1.1
			c0.3-0.2,0.8-0.3,1.2-0.3c1.6,0,1.7,0.7,1.5,1.5L91,53 M88.8,52.4c-0.1,0.3-0.1,0.7,0.3,0.7c0.7,0,0.8-1,0.9-1.5
			C89.4,51.7,88.9,51.6,88.8,52.4"/>
		<path class="st2" d="M93.5,49.3l-0.1,0.6h0c0.3-0.5,0.8-0.7,1.3-0.7l-0.2,1.1c-1.1-0.1-1.2,0.6-1.3,1l-0.5,2.5h-1.3l0.8-4.5H93.5"
			/>
		<path class="st2" d="M95.5,51.8c-0.1,0.5-0.2,1.3,0.3,1.3c0.4,0,0.6-0.4,0.7-0.8h1.3c-0.1,0.5-0.3,0.9-0.7,1.2
			c-0.3,0.3-0.8,0.4-1.4,0.4c-1.6,0-1.7-1-1.4-2.4c0.2-1.2,0.6-2.3,2.3-2.3c1.7,0,1.7,1.1,1.4,2.6H95.5 M96.8,51.1
			c0.1-0.4,0.2-1.1-0.4-1.1c-0.6,0-0.7,0.7-0.8,1.1H96.8z"/>
		<path class="st2" d="M99.3,52.4c0,0.2-0.1,0.4,0,0.5c0,0.1,0.2,0.2,0.4,0.2c0.3,0,0.5-0.2,0.6-0.5c0.2-1-2.1-0.7-1.8-2.2
			c0.2-1,1.2-1.3,2-1.3c0.9,0,1.6,0.4,1.3,1.4h-1.2c0.1-0.3,0.1-0.5,0-0.6c-0.1-0.1-0.2-0.1-0.3-0.1c-0.3,0-0.5,0.2-0.5,0.5
			c-0.1,0.7,2.1,0.7,1.8,2.1c-0.1,0.8-0.9,1.4-1.9,1.4c-1.1,0-1.8-0.3-1.5-1.5H99.3"/>
	</g>
</g>
</svg>
