<?xml version="1.0" encoding="UTF-8"?><svg id="logo_original" xmlns="http://www.w3.org/2000/svg" viewBox="0 0 454.55 175"><defs><style>.cls-1,.cls-2{fill:#174273;}.cls-2{fill-rule:evenodd;}</style></defs><path class="cls-2" d="M236.8,133.82c-2.71,10.64-5.42,21.27-8.13,31.91,5.2.03,10.4.07,15.6.1,2.72-10.67,5.45-21.34,8.17-32.01h-15.65Z"/><path class="cls-2" d="M259.99,125.21c-3.41,13.51-6.83,27.01-10.24,40.52,5.19.03,10.38.07,15.57.1,3.45-13.54,6.91-27.08,10.36-40.62h-15.69Z"/><path class="cls-2" d="M283.82,114.68c-4.37,17.05-8.73,34.1-13.1,51.15h15.43c4.34-17.05,8.67-34.1,13.01-51.15h-15.34Z"/><path class="cls-2" d="M76.87,11.72c24.88.08,64.84.25,74.63.25,19.06,0,31.97,16.15,33,27.67.38,4.26-.85,9.61-1.08,10.43-1.99,7.2-6.35,12.15-10.56,19.23,2.56,1.38,5.43,3.15,8.42,5.41,3.5,2.65,6.33,5.34,8.56,7.74,6.06-23.49,12.12-46.98,18.18-70.48h29.14c10.19,0,15.16,0,24.36-.08,2.84-.02,5.89.02,10.37.08,9.29.13,8.96.02,12.89,0,7.23-.04,11.92.41,16.91,3.06,1,.53,3.89,2.24,6.89,5.33,3.17,3.27,5.26,7.23,6.45,11.45,2.3-3.45,7.87-10.79,17.95-15.6,7.88-3.76,14.82-4.28,20.02-4.49h54.13l-7.75,29.69s-24.36-.07-36.38,0c-8.33,0-14.61,7.99-10.4,12.68,6.34,7.08,26.79,14.82,44.75,29.1,7.47,5.94,10.56,16.06,10.33,24.74-.25,9.41-6.19,16.42-12.74,22.36-6.41,5.81-21.43,14.77-35.76,14.69l-62.55.11,8.12-31.58s31.73.01,47.49,0c5.44.05,12.09-2.62,14.22-5.81,2.13-3.24-.28-8.02-3.88-10.07-17.5-9.92-34.91-20.39-49.34-34.89-1.04,2.77-2.41,5.63-4.21,8.47-10.6,16.79-26.92,23.33-36.81,23.33h-46.65s4.88-18.58,7.31-28.23c11.86.1,23.52-.03,35.38.07,5.68-.05,13.29-4.98,13.86-13.06.33-5.18-2.93-11.91-11.21-11.91-12.04.04-24.09.07-36.13.11-8.84,34.42-17.69,68.83-26.53,103.25-11.38.01-22.77.03-34.15.04,1.5-5.84,3.01-11.68,4.51-17.52l-.19-.05c-4.86,4.82-12.98,11.52-24.56,15.18-7.94,2.51-14.37,2.61-20.11,2.64-18.4.12-35.2.12-51.23,0,2.73-10.43,5.46-20.85,8.2-31.28,15.92.01,31.85.03,47.77.04,7.66-.3,14.57-7.68,14.57-13.66s-4.73-11.46-15-11.36v-.05c-13.65,0-27.31.01-40.96.02,2.49-9.82,4.98-19.63,7.46-29.45,12.05,0,24.1.01,36.14.02,4.54-1,6.91-5.33,6.81-9.62-.09-4.84-3.31-8.27-8.56-8.27h-34.21c-8.81,34.54-17.61,69.07-26.42,103.61h-35.41c11.32-44.46,22.65-88.91,33.97-133.37Z"/><path class="cls-1" d="M21.54,184.35l-6.73,27.03h-5.14l6.73-27.03h5.14Z"/><path class="cls-1" d="M37.08,195.71l-3.89,15.67h-4.56l3.46-13.97c.15-.43.23-.83.24-1.19,0-.55-.14-.99-.45-1.3-.31-.31-.7-.47-1.19-.47-.58,0-1.14.21-1.69.61-.55.41-.99,1-1.32,1.77l-3.62,14.55h-4.56l5.1-20.52h4.56l-.58,2.28c.84-.94,1.71-1.63,2.62-2.08s1.79-.67,2.64-.67c1.04,0,1.89.33,2.55.98.66.65.99,1.53.97,2.64,0,.56-.1,1.12-.28,1.7Z"/><path class="cls-1" d="M53.12,197.12h-4.56c.18-.48.27-.92.28-1.3,0-.55-.15-.97-.47-1.25-.32-.28-.72-.42-1.21-.42-.58,0-1.1.17-1.56.51-.46.34-.7.77-.71,1.3-.01.65.38,1.33,1.16,2.03,1.17.89,2.34,1.77,3.54,2.64,1.3,1.23,1.94,2.62,1.92,4.16-.02.94-.29,2-.82,3.18-.53,1.18-1.52,2.14-2.98,2.88-1.46.74-2.97,1.1-4.54,1.1s-2.92-.4-3.98-1.19c-1.06-.8-1.58-1.98-1.55-3.55.01-.82.19-1.71.52-2.68h4.56c-.35.84-.53,1.56-.54,2.14s.12.96.39,1.21c.27.25.64.38,1.1.38.65,0,1.28-.23,1.88-.71s.9-1.02.92-1.65c0-.27-.05-.51-.17-.74s-.26-.44-.42-.63c-1.71-1.37-3.09-2.6-4.13-3.69-1.04-1.09-1.59-1.87-1.64-2.35-.05-.48-.08-.81-.07-.98v-.36c.04-2.07.87-3.72,2.48-4.94,1.61-1.22,3.43-1.83,5.46-1.83,1.59,0,2.92.4,3.98,1.19,1.06.8,1.58,1.95,1.55,3.47-.01.6-.13,1.29-.36,2.06Z"/><path class="cls-1" d="M65.34,190.86l-.92,3.7h-1.97s-2.83,11.4-2.83,11.4c-.1.37-.16.7-.16,1-.01.71.54,1.07,1.65,1.07l-.93,3.69h-1.81c-1.38,0-2.39-.15-3.03-.45-.65-.3-.96-.97-.94-2.01,0-.41.09-.93.24-1.56l3.26-13.13h-2s.92-3.7.92-3.7h2s1.36-5.46,1.36-5.46h4.57l-1.36,5.46h1.97Z"/><path class="cls-1" d="M73.2,190.86l-5.1,20.52h-4.56l5.1-20.52h4.56ZM74.96,183.73l-1.13,4.56h-4.56l1.13-4.56h4.56Z"/><path class="cls-1" d="M85.02,190.86l-.92,3.7h-1.97s-2.83,11.4-2.83,11.4c-.1.37-.16.7-.16,1-.01.71.54,1.07,1.65,1.07l-.93,3.69h-1.81c-1.38,0-2.39-.15-3.03-.45-.65-.3-.96-.97-.94-2.01,0-.41.09-.93.24-1.56l3.26-13.13h-2s.92-3.7.92-3.7h2s1.36-5.46,1.36-5.46h4.57l-1.36,5.46h1.97Z"/><path class="cls-1" d="M101.43,190.86l-5.1,20.52h-4.56l.7-2.86c-.55,1.11-1.34,2.02-2.38,2.73-1.04.71-2.08,1.07-3.11,1.07-.92,0-1.67-.31-2.25-.92s-.86-1.56-.84-2.84c0-.53.03-.92.07-1.18.04-.25.13-.63.26-1.14l3.81-15.38h4.56l-3.54,14.26c-.1.39-.16.77-.16,1.16-.01.58.12,1.03.39,1.36.27.33.62.49,1.06.49.6,0,1.19-.27,1.75-.8.56-.53.98-1.27,1.23-2.21l3.54-14.26h4.56Z"/><path class="cls-1" d="M112.96,190.86l-.92,3.7h-1.97s-2.83,11.4-2.83,11.4c-.1.37-.16.7-.16,1-.01.71.54,1.07,1.65,1.07l-.93,3.69h-1.81c-1.38,0-2.39-.15-3.03-.45-.65-.3-.96-.97-.94-2.01,0-.41.09-.93.24-1.56l3.26-13.13h-2s.92-3.7.92-3.7h2s1.36-5.46,1.36-5.46h4.57l-1.36,5.46h1.97Z"/><path class="cls-1" d="M127.45,200.85c-.71,3.28-1.65,5.95-2.82,8.02-1.17,2.06-3.53,3.09-7.07,3.09-2.22,0-3.76-.45-4.63-1.34-.87-.89-1.28-2.12-1.26-3.69.02-.92.1-1.74.26-2.46s.59-2.37,1.3-4.94,1.6-4.75,2.68-6.55c1.08-1.8,3.24-2.7,6.47-2.7,2.22,0,3.76.4,4.63,1.21s1.28,2.1,1.25,3.89c-.02,1.28-.3,3.1-.82,5.46ZM123.54,197.12c.15-.51.23-.94.24-1.3.01-.63-.15-1.1-.48-1.41-.33-.31-.75-.47-1.26-.47-.75,0-1.45.28-2.11.85-.66.57-1.07,1.35-1.23,2.33l-2.06,8.29c-.1.31-.16.65-.16,1.01-.01.63.17,1.12.54,1.47.37.35.85.52,1.46.52.68,0,1.31-.26,1.9-.78.59-.52.96-1.26,1.12-2.23l2.06-8.29Z"/><path class="cls-1" d="M160.09,184.35l-6.73,27.03h-4.85l.43-1.7c-.54.8-1.19,1.4-1.93,1.81-.74.41-1.54.62-2.38.62-1.06,0-1.95-.39-2.68-1.18-.72-.78-1.07-1.94-1.04-3.46.01-.6.09-1.29.25-2.06l2.26-9.12c.68-1.91,1.62-3.32,2.82-4.23,1.2-.92,2.4-1.38,3.6-1.38.84,0,1.57.21,2.19.61.62.41.97.93,1.06,1.55l2.14-8.5h4.86ZM151.81,197.99c.14-.55.21-1.01.22-1.37.02-1.35-.46-2.02-1.45-2.02-.58,0-1.16.3-1.74.89s-1.01,1.43-1.3,2.51l-1.77,7.12c-.13.56-.2,1.03-.2,1.41-.01.63.13,1.12.41,1.49.28.36.65.54,1.11.54.58,0,1.15-.3,1.72-.89.56-.59.99-1.44,1.27-2.55l1.74-7.13Z"/><path class="cls-1" d="M173.78,201.97h-9.47l-.94,3.73v.76c-.02.6.14,1.07.49,1.39.34.33.79.49,1.35.49.8,0,1.51-.33,2.13-.98.63-.65.95-1.59.97-2.82h4.85c-.04,2.15-.92,3.89-2.66,5.23-1.74,1.34-3.67,2.01-5.79,2.01-1.66,0-3.05-.46-4.16-1.37s-1.64-2.27-1.61-4.05c0-.41.03-.74.05-.98.03-.24.11-.61.24-1.12l1.79-7.13c.74-2.49,1.89-4.2,3.44-5.14,1.55-.94,3.52-1.41,5.91-1.41,1.5,0,2.68.31,3.57.94.88.63,1.31,1.88,1.27,3.76-.03,1.69-.51,3.92-1.43,6.69ZM170.63,196.29c.08-.27.12-.49.12-.69,0-.46-.17-.82-.54-1.07s-.82-.38-1.35-.38c-.68,0-1.32.19-1.93.56s-.99.9-1.15,1.57l-.55,2.28h4.85l.55-2.28Z"/><path class="cls-1" d="M207.13,192.85h-4.85c.23-.87.35-1.6.36-2.21.02-.92-.18-1.58-.58-1.99s-.93-.62-1.58-.62c-.87,0-1.69.32-2.48.96-.78.64-1.18,1.38-1.2,2.23,0,.39.08.76.25,1.12.17.36.45.72.83,1.09,1.57,1.26,3.14,2.5,4.71,3.73,1.78,1.64,2.65,3.53,2.61,5.68-.05,2.73-1.16,4.94-3.34,6.64-2.18,1.7-4.57,2.55-7.17,2.55-1.93,0-3.53-.51-4.79-1.54-1.26-1.02-1.87-2.54-1.84-4.54.02-1.16.3-2.48.83-3.98h5.14c-.25.63-.43,1.2-.54,1.72-.11.52-.16,1-.17,1.43-.02.97.21,1.68.67,2.14s1.07.69,1.82.69c.94,0,1.83-.34,2.66-1.01.83-.67,1.26-1.49,1.27-2.46,0-.56-.13-1.1-.41-1.65-.28-.54-.95-1.26-2.01-2.15s-2.3-1.95-3.73-3.18c-1.52-1.54-2.26-3.16-2.23-4.85.01-.6.24-1.63.69-3.09.45-1.46,1.61-2.82,3.49-4.07,1.88-1.25,3.86-1.88,5.93-1.88,1.83,0,3.34.51,4.51,1.52,1.18,1.01,1.75,2.49,1.71,4.41-.02.99-.22,2.1-.6,3.33Z"/><path class="cls-1" d="M222.96,201.97h-9.47l-.94,3.73v.76c-.02.6.14,1.07.49,1.39s.79.49,1.35.49c.8,0,1.51-.33,2.13-.98.63-.65.95-1.59.97-2.82h4.85c-.04,2.15-.93,3.89-2.66,5.23-1.74,1.34-3.67,2.01-5.79,2.01-1.67,0-3.05-.46-4.16-1.37s-1.64-2.27-1.61-4.05c0-.41.02-.74.05-.98.03-.24.11-.61.24-1.12l1.79-7.13c.74-2.49,1.89-4.2,3.44-5.14,1.55-.94,3.52-1.41,5.9-1.41,1.5,0,2.68.31,3.57.94.88.63,1.31,1.88,1.27,3.76-.03,1.69-.51,3.92-1.43,6.69ZM219.81,196.29c.08-.27.12-.49.12-.69,0-.46-.17-.82-.54-1.07-.37-.25-.82-.38-1.35-.38-.67,0-1.32.19-1.93.56s-.99.9-1.15,1.57l-.55,2.28h4.85l.55-2.28Z"/><path class="cls-1" d="M243.74,191.15l-4.87,19.65c-.47,2.24-1.64,4.03-3.5,5.36-1.86,1.33-3.8,1.99-5.82,1.99-1.57,0-2.85-.4-3.85-1.21-1-.81-1.48-2-1.46-3.56h4.85c-.02.87.48,1.3,1.5,1.3.75,0,1.48-.28,2.2-.83.72-.56,1.15-1.28,1.29-2.17l.58-2.28c-.37.6-1.11,1.18-2.2,1.74-1.09.55-2.15.83-3.16.83s-1.83-.34-2.44-1.01c-.62-.67-.91-1.77-.88-3.29,0-.51.05-1.07.14-1.7l2.3-9.37c.47-1.88,1.35-3.35,2.65-4.4,1.3-1.05,2.66-1.57,4.08-1.57.87,0,1.59.21,2.18.63.58.42.94,1.06,1.07,1.9l.5-1.99h4.85ZM237.34,197.41c.1-.36.16-.71.16-1.05.01-.7-.14-1.24-.47-1.61s-.75-.56-1.29-.56c-.63,0-1.23.27-1.79.81-.56.54-.97,1.35-1.23,2.41l-1.85,7.42v.56c-.01.21-.02.36-.02.45-.01.82.11,1.43.38,1.83s.65.6,1.13.6c.63,0,1.24-.31,1.84-.94s1.03-1.46,1.29-2.5l1.83-7.42Z"/><path class="cls-1" d="M261.91,190.86l-5.1,20.52h-4.56l.7-2.86c-.55,1.11-1.35,2.02-2.38,2.73-1.04.71-2.08,1.07-3.11,1.07-.92,0-1.67-.31-2.25-.92-.58-.62-.86-1.56-.84-2.84,0-.53.03-.92.08-1.18s.13-.63.25-1.14l3.81-15.38h4.56l-3.54,14.26c-.1.39-.16.77-.16,1.16-.01.58.12,1.03.39,1.36.27.33.63.49,1.06.49.6,0,1.19-.27,1.75-.8.56-.53.98-1.27,1.23-2.21l3.54-14.26h4.56Z"/><path class="cls-1" d="M275.96,190.61l-1.4,5.57c-.17,0-.36,0-.56-.02s-.34-.02-.41-.02c-1.16,0-2.12.26-2.89.78-.77.52-1.32,1.41-1.66,2.66l-2.92,11.8h-4.7l5.06-20.41h4.52l-.9,3.62c.96-1.37,1.81-2.32,2.55-2.82.73-.51,1.35-.83,1.84-.96.5-.13.99-.2,1.47-.2Z"/><path class="cls-1" d="M283.37,190.86l-5.1,20.52h-4.56l5.1-20.52h4.56ZM285.13,183.73l-1.13,4.56h-4.56l1.13-4.56h4.56Z"/><path class="cls-1" d="M303.39,184.35l-6.73,27.03h-4.85l.43-1.7c-.55.8-1.19,1.4-1.93,1.81-.74.41-1.54.62-2.38.62-1.06,0-1.95-.39-2.68-1.18-.72-.78-1.07-1.94-1.04-3.46.01-.6.09-1.29.25-2.06l2.25-9.12c.68-1.91,1.62-3.32,2.82-4.23,1.2-.92,2.4-1.38,3.6-1.38.84,0,1.57.21,2.19.61.62.41.97.93,1.06,1.55l2.14-8.5h4.86ZM295.1,197.99c.14-.55.21-1.01.22-1.37.02-1.35-.46-2.02-1.45-2.02-.58,0-1.16.3-1.74.89s-1.01,1.43-1.3,2.51l-1.77,7.12c-.13.56-.2,1.03-.21,1.41-.01.63.13,1.12.41,1.49.28.36.65.54,1.11.54.58,0,1.15-.3,1.72-.89.56-.59.99-1.44,1.27-2.55l1.74-7.13Z"/><path class="cls-1" d="M318.8,195.13l-3.27,13.1c-.08.29-.16.66-.24,1.1-.08.45-.12.8-.13,1.07,0,.34.05.66.16.98h-4.85c-.02-.1-.03-.27-.03-.51,0-.22.03-.47.09-.76.05-.29.11-.53.16-.72-.72.89-1.55,1.57-2.5,2.05-.95.47-1.87.71-2.76.71-1.13,0-2.07-.37-2.82-1.1-.75-.74-1.11-1.75-1.09-3.06,0-.53.18-1.46.5-2.79.32-1.33,1.06-2.45,2.21-3.37,1.15-.92,2.7-1.75,4.64-2.5,1.94-.75,3.18-1.34,3.72-1.77.54-.43.9-.82,1.09-1.16.19-.34.28-.65.29-.94,0-.43-.17-.78-.54-1.05-.37-.27-.83-.4-1.39-.4-.77,0-1.46.25-2.06.76-.6.51-.97,1.29-1.11,2.35h-4.56c.23-2.24,1.18-3.95,2.84-5.12,1.66-1.17,3.54-1.75,5.64-1.75,1.76,0,3.24.35,4.43,1.05,1.19.7,1.78,1.64,1.76,2.82,0,.27-.07.6-.2,1.01ZM312.51,200.85l-3.95,2.28c-.63.34-1.12.82-1.45,1.45-.34.63-.51,1.28-.52,1.95-.01.8.15,1.32.5,1.56.34.24.7.36,1.06.36.65,0,1.29-.25,1.91-.76.62-.51,1.07-1.27,1.32-2.28l1.13-4.56Z"/><path class="cls-1" d="M339.57,184.35l-6.73,27.03h-4.85l.43-1.7c-.55.8-1.19,1.4-1.93,1.81-.74.41-1.54.62-2.38.62-1.06,0-1.95-.39-2.68-1.18-.72-.78-1.07-1.94-1.04-3.46.01-.6.09-1.29.25-2.06l2.25-9.12c.68-1.91,1.62-3.32,2.82-4.23,1.2-.92,2.4-1.38,3.6-1.38.84,0,1.57.21,2.19.61.62.41.97.93,1.06,1.55l2.14-8.5h4.86ZM331.29,197.99c.14-.55.21-1.01.22-1.37.02-1.35-.46-2.02-1.45-2.02-.58,0-1.16.3-1.74.89s-1.01,1.43-1.3,2.51l-1.77,7.12c-.13.56-.2,1.03-.21,1.41-.01.63.13,1.12.41,1.49.28.36.65.54,1.11.54.58,0,1.15-.3,1.72-.89.56-.59.99-1.44,1.27-2.55l1.74-7.13Z"/><path class="cls-1" d="M368.52,192.85h-4.85c.23-.87.35-1.6.36-2.21.02-.92-.18-1.58-.58-1.99s-.93-.62-1.58-.62c-.87,0-1.69.32-2.48.96-.78.64-1.18,1.38-1.2,2.23,0,.39.08.76.25,1.12.17.36.45.72.83,1.09,1.57,1.26,3.14,2.5,4.71,3.73,1.78,1.64,2.65,3.53,2.62,5.68-.05,2.73-1.16,4.94-3.34,6.64-2.18,1.7-4.57,2.55-7.17,2.55-1.93,0-3.52-.51-4.79-1.54-1.26-1.02-1.87-2.54-1.84-4.54.02-1.16.3-2.48.83-3.98h5.14c-.25.63-.43,1.2-.54,1.72-.11.52-.16,1-.17,1.43-.02.97.21,1.68.67,2.14s1.07.69,1.82.69c.94,0,1.83-.34,2.66-1.01.83-.67,1.26-1.49,1.27-2.46,0-.56-.13-1.1-.41-1.65-.28-.54-.95-1.26-2.01-2.15-1.06-.89-2.3-1.95-3.73-3.18-1.52-1.54-2.26-3.16-2.23-4.85.01-.6.24-1.63.69-3.09.45-1.46,1.61-2.82,3.49-4.07,1.88-1.25,3.86-1.88,5.93-1.88,1.83,0,3.34.51,4.51,1.52,1.18,1.01,1.75,2.49,1.71,4.41-.02.99-.22,2.1-.6,3.33Z"/><path class="cls-1" d="M385.21,200.85c-.71,3.28-1.65,5.95-2.82,8.02-1.17,2.06-3.53,3.09-7.07,3.09-2.22,0-3.76-.45-4.63-1.34-.86-.89-1.28-2.12-1.26-3.69.02-.92.1-1.74.26-2.46s.59-2.37,1.3-4.94c.71-2.57,1.6-4.75,2.68-6.55,1.08-1.8,3.24-2.7,6.47-2.7,2.22,0,3.76.4,4.63,1.21.87.81,1.28,2.1,1.25,3.89-.02,1.28-.3,3.1-.82,5.46ZM381.29,197.12c.15-.51.23-.94.24-1.3.01-.63-.15-1.1-.48-1.41s-.75-.47-1.26-.47c-.75,0-1.45.28-2.11.85-.66.57-1.07,1.35-1.24,2.33l-2.06,8.29c-.1.31-.16.65-.16,1.01-.01.63.17,1.12.54,1.47s.85.52,1.46.52c.67,0,1.31-.26,1.89-.78.59-.52.96-1.26,1.13-2.23l2.06-8.29Z"/><path class="cls-1" d="M402.73,196.43l-.39,1.64h-4.7l.62-2.3v-.47c.02-.85-.39-1.28-1.24-1.28-.8,0-1.39.38-1.79,1.14-.4.76-.78,1.9-1.15,3.43l-1.17,4.82c-.44,1.5-.66,2.64-.68,3.41,0,.48.09.84.29,1.07.2.23.52.37.95.42.77,0,1.26-.24,1.48-.71.21-.47.51-1.24.89-2.3l.47-1.88h4.7l-.47,1.88c-.55,2.22-1.45,3.88-2.73,4.98-1.27,1.1-3.06,1.65-5.35,1.65-1.66,0-2.92-.36-3.78-1.09s-1.27-1.86-1.24-3.41c.02-.94.19-1.99.53-3.15l1.64-6.63c.65-2.66,1.68-4.53,3.08-5.62,1.41-1.09,3.11-1.63,5.11-1.63,1.81,0,3.13.4,3.96,1.2.83.8,1.23,1.84,1.21,3.13,0,.56-.09,1.13-.25,1.71Z"/><path class="cls-1" d="M412.59,190.86l-5.1,20.52h-4.56l5.1-20.52h4.56ZM414.35,183.73l-1.13,4.56h-4.56l1.13-4.56h4.56Z"/><path class="cls-1" d="M429.92,195.13l-3.27,13.1c-.08.29-.16.66-.24,1.1-.08.45-.12.8-.13,1.07,0,.34.05.66.16.98h-4.85c-.02-.1-.03-.27-.03-.51,0-.22.03-.47.09-.76.05-.29.11-.53.16-.72-.72.89-1.55,1.57-2.5,2.05-.95.47-1.87.71-2.76.71-1.13,0-2.07-.37-2.82-1.1-.75-.74-1.11-1.75-1.09-3.06,0-.53.18-1.46.5-2.79.32-1.33,1.06-2.45,2.21-3.37,1.15-.92,2.7-1.75,4.64-2.5,1.94-.75,3.18-1.34,3.72-1.77.54-.43.9-.82,1.09-1.16.19-.34.28-.65.29-.94,0-.43-.17-.78-.54-1.05-.37-.27-.83-.4-1.39-.4-.77,0-1.46.25-2.06.76-.6.51-.97,1.29-1.11,2.35h-4.56c.23-2.24,1.18-3.95,2.84-5.12,1.66-1.17,3.54-1.75,5.64-1.75,1.76,0,3.24.35,4.43,1.05,1.19.7,1.78,1.64,1.76,2.82,0,.27-.07.6-.2,1.01ZM423.64,200.85l-3.95,2.28c-.63.34-1.12.82-1.45,1.45-.34.63-.51,1.28-.52,1.95-.01.8.15,1.32.5,1.56.34.24.7.36,1.06.36.65,0,1.29-.25,1.91-.76.62-.51,1.07-1.27,1.32-2.28l1.13-4.56Z"/><path class="cls-1" d="M442.28,183.73l-6.85,27.65h-4.85l6.85-27.65h4.85Z"/></svg>